# xmcd CD database file
#
# Track frame offsets:
#	150
#	13534
#	37675
#	50246
#	76103
#	99362
#	120421
#	141963
#	158658
#	178158
#	199247
#	215511
#	233131
#	247498
#
# Disc length: 3471 seconds
#
# Revision: 0
# Processed by: cddbd v1.4PL0 Copyright (c) Steve Scherf et al.
# Submitted via: NeoAudio 9.9.9
#
DISCID=bb0d8d0e
DTITLE=Winard Harper - Trap Dancer
DYEAR=1998
DGENRE=Jazz
TTITLE0=The Tap Dancer
TTITLE1=Sound For Sore Ears
TTITLE2=Amorcita
TTITLE3=You Don't Know What Love Is
TTITLE4=Social Call
TTITLE5=Work Song
TTITLE6=Helen's Song
TTITLE7=Qamara
TTITLE8=How Deep Is The Ocean
TTITLE9=Skylark
TTITLE10=Blues For Brown
TTITLE11=Key West
TTITLE12=Shorty Long
TTITLE13=Allahu Akbar
EXTD=YEAR: 1998
EXTT0=
EXTT1=
EXTT2=
EXTT3=
EXTT4=
EXTT5=
EXTT6=
EXTT7=
EXTT8=
EXTT9=
EXTT10=
EXTT11=
EXTT12=
EXTT13=
PLAYORDER=
